<svg width="56" height="72" viewBox="0 0 56 72" fill="none" xmlns="http://www.w3.org/2000/svg">
<g clip-path="url(#clip0_1905_210)">
<path d="M39.7999 50.3V50.8C43.4999 50.9 47.1999 51.5001 50.7999 52.7001L51.7999 53C52.1999 53.1 52.3999 53.5001 52.3999 53.9001C52.3999 54.3001 52.0999 54.7 51.7999 54.8L50.7999 55.1C47.1999 56.3 43.4999 56.9 39.7999 57V57.5H33.4999L29.4999 59H6.1999V48.8H29.5999L33.5999 50.3H39.7999Z" fill="#EBC118"/>
<path d="M5.3999 59L5.3999 48.8H3.9999L3.9999 59H5.3999Z" fill="#493B00"/>
<path d="M39.7999 38.4999V38.9999C43.4999 39.0999 47.1999 39.6999 50.7999 40.8999L51.7999 41.1999C52.1999 41.2999 52.3999 41.6999 52.3999 42.0999C52.3999 42.4999 52.0999 42.8999 51.7999 42.9999L50.7999 43.2999C47.1999 44.4999 43.4999 45.0999 39.7999 45.1999V45.6999H33.4999L29.4999 47.1999H6.1999V36.8999H29.5999L33.5999 38.3999L39.7999 38.4999Z" fill="#EBC118"/>
<path d="M5.3999 47.1999L5.3999 36.8999H3.9999L3.9999 47.0999H5.3999V47.1999Z" fill="#493B00"/>
<path d="M39.7999 26.2V26.7C43.4999 26.8 47.1999 27.4 50.7999 28.6L51.7999 28.9C52.1999 29 52.3999 29.3999 52.3999 29.7999C52.3999 30.1999 52.0999 30.6 51.7999 30.7L50.7999 31C47.1999 32.2 43.4999 32.8 39.7999 32.9V33.4H33.4999L29.4999 34.9H6.1999V24.7L29.5999 24.7L33.5999 26.2H39.7999Z" fill="#EBC118"/>
<path d="M5.3999 34.9L5.3999 24.7H3.9999L3.9999 34.9H5.3999Z" fill="#493B00"/>
<path d="M39.7999 14.3V14.8C43.4999 14.9 47.1999 15.5 50.7999 16.7L51.7999 17C52.1999 17.1 52.3999 17.5 52.3999 17.9C52.3999 18.3 52.0999 18.7 51.7999 18.8L50.7999 19.1C47.1999 20.3 43.4999 20.9 39.7999 21V21.5H33.4999L29.4999 23H6.1999V12.7H29.5999L33.5999 14.2L39.7999 14.3Z" fill="#EBC118"/>
<path d="M5.3999 23L5.3999 12.7H3.9999L3.9999 23H5.3999Z" fill="#493B00"/>
</g>
<defs>
<clipPath id="clip0_1905_210">
<rect width="72" height="56" fill="white" transform="matrix(0 1 -1 0 56 0)"/>
</clipPath>
</defs>
</svg>
