<svg width="24" height="18" viewBox="0 0 24 18" fill="none" xmlns="http://www.w3.org/2000/svg">
<path d="M19.6 18L13.3 11.7C12.8 12.1 12.225 12.4167 11.575 12.65C10.925 12.8833 10.2333 13 9.5 13C7.68333 13 6.146 12.3707 4.888 11.112C3.63 9.85333 3.00067 8.316 3 6.5C3 4.68333 3.62933 3.146 4.888 1.888C6.14667 0.63 7.684 0.000666667 9.5 0C11.3167 0 12.854 0.629333 14.112 1.888C15.37 3.14667 15.9993 4.684 16 6.5C16 7.23333 15.8833 7.925 15.65 8.575C15.4167 9.225 15.1 9.8 14.7 10.3L21 16.6L19.6 18ZM9.5 11C10.75 11 11.8127 10.5623 12.688 9.687C13.5633 8.81167 14.0007 7.74933 14 6.5C14 5.25 13.5623 4.18733 12.687 3.312C11.8117 2.43667 10.7493 1.99933 9.5 2C8.25 2 7.18733 2.43767 6.312 3.313C5.43667 4.18833 4.99933 5.25067 5 6.5C5 7.75 5.43767 8.81267 6.313 9.688C7.18833 10.5633 8.25067 11.0007 9.5 11Z" fill="black"/>
</svg>
