<svg width="26" height="24" viewBox="0 0 26 24" fill="none" xmlns="http://www.w3.org/2000/svg">
<path d="M20.2724 5.33005C18.8984 4.71005 17.4107 4.26005 15.861 4.00005C15.8474 3.99963 15.8339 4.00209 15.8214 4.00728C15.8089 4.01246 15.7978 4.02023 15.7887 4.03005C15.6027 4.36005 15.3858 4.79005 15.2411 5.12005C13.5975 4.88005 11.9259 4.88005 10.2822 5.12005C10.1376 4.78005 9.92062 4.36005 9.72433 4.03005C9.714 4.01005 9.683 4.00005 9.65201 4.00005C8.10234 4.26005 6.62499 4.71005 5.24062 5.33005C5.23029 5.33005 5.21996 5.34005 5.20963 5.35005C2.39956 9.42005 1.62473 13.38 2.00698 17.3C2.00698 17.32 2.01731 17.34 2.03797 17.35C3.89757 18.67 5.68486 19.47 7.45148 20C7.48247 20.01 7.51347 20 7.5238 19.98C7.93704 19.43 8.30896 18.85 8.62923 18.24C8.64989 18.2 8.62923 18.16 8.5879 18.15C7.99903 17.93 7.44115 17.67 6.8936 17.37C6.85227 17.35 6.85227 17.29 6.88327 17.26C6.99691 17.18 7.11055 17.09 7.2242 17.01C7.24486 16.99 7.27585 16.99 7.29651 17C10.8504 18.57 14.6833 18.57 18.1959 17C18.2165 16.99 18.2475 16.99 18.2682 17.01C18.3818 17.1 18.4955 17.18 18.6091 17.27C18.6504 17.3 18.6504 17.36 18.5988 17.38C18.0615 17.69 17.4933 17.94 16.9045 18.16C16.8631 18.17 16.8528 18.22 16.8631 18.25C17.1937 18.86 17.5657 19.44 17.9686 19.99C17.9996 20 18.0306 20.01 18.0615 20C19.8385 19.47 21.6258 18.67 23.4854 17.35C23.506 17.34 23.5164 17.32 23.5164 17.3C23.9709 12.77 22.7622 8.84005 20.3137 5.35005C20.3034 5.34005 20.2931 5.33005 20.2724 5.33005ZM9.16645 14.91C8.10234 14.91 7.21386 13.96 7.21386 12.79C7.21386 11.62 8.08168 10.67 9.16645 10.67C10.2615 10.67 11.1294 11.63 11.119 12.79C11.119 13.96 10.2512 14.91 9.16645 14.91ZM16.3672 14.91C15.3031 14.91 14.4147 13.96 14.4147 12.79C14.4147 11.62 15.2825 10.67 16.3672 10.67C17.4623 10.67 18.3302 11.63 18.3198 12.79C18.3198 13.96 17.4623 14.91 16.3672 14.91Z" fill="black"/>
</svg>
